HIERARCHY
ROOT SpineBase
{
  OFFSET 0.000000 0.000000 0.000000
  CHANNELS 6 Xposition Yposition Zposition Zrotation Xrotation Yrotation
  JOINT SpineMid
  {
    OFFSET 0.000000 32.606829 0.000000
    CHANNELS 3 Zrotation Xrotation Yrotation
    JOINT SpineShoulder
    {
      OFFSET 0.242100 24.155597 -0.745073
      CHANNELS 3 Zrotation Xrotation Yrotation
      JOINT Neck
      {
        OFFSET 0.183736 7.967084 -0.569267
        CHANNELS 3 Zrotation Xrotation Yrotation
        JOINT Head
        {
          OFFSET 3.789859 10.768942 5.890783
          CHANNELS 3 Zrotation Xrotation Yrotation
          End Site
          {
            OFFSET 0 0 0
          }
        }
      }
      JOINT ShoulderLeft
      {
        OFFSET -1.707252 -5.148929 -15.539312
        CHANNELS 3 Zrotation Xrotation Yrotation
        JOINT ElbowLeft
        {
          OFFSET 7.844558 -27.106024 -2.484189
          CHANNELS 3 Zrotation Xrotation Yrotation
          JOINT WristLeft
          {
            OFFSET -5.129600 14.283186 -9.251681
            CHANNELS 3 Zrotation Xrotation Yrotation
            JOINT HandLeft
            {
              OFFSET -1.489426 4.684429 4.280442
              CHANNELS 3 Zrotation Xrotation Yrotation
              JOINT HandTipLeft
              {
                OFFSET -0.124932 4.833224 0.060642
                CHANNELS 3 Zrotation Xrotation Yrotation
                End Site
                {
                  OFFSET 0 0 0
                }
              }
              JOINT ThumbLeft
              {
                OFFSET -3.659050 -3.098419 0.158308
                CHANNELS 3 Zrotation Xrotation Yrotation
                End Site
                {
                  OFFSET 0 0 0
                }
              }
            }
          }
        }
      }
      JOINT ShoulderRight
      {
        OFFSET 7.114632 -8.731218 9.488120
        CHANNELS 3 Zrotation Xrotation Yrotation
        JOINT ElbowRight
        {
          OFFSET 3.341607 -19.672234 -6.402757
          CHANNELS 3 Zrotation Xrotation Yrotation
          JOINT WristRight
          {
            OFFSET 3.591796 -24.262342 2.530699
            CHANNELS 3 Zrotation Xrotation Yrotation
            JOINT HandRight
            {
              OFFSET 0.050560 -3.083608 -7.198448
              CHANNELS 3 Zrotation Xrotation Yrotation
              JOINT HandTipRight
              {
                OFFSET -0.350595 -6.666065 -2.615703
                CHANNELS 3 Zrotation Xrotation Yrotation
                End Site
                {
                  OFFSET 0 0 0
                }
              }
              JOINT ThumbRight
              {
                OFFSET -1.218282 1.072480 -7.722261
                CHANNELS 3 Zrotation Xrotation Yrotation
                End Site
                {
                  OFFSET 0 0 0
                }
              }
            }
          }
        }
      }
    }
  }
  JOINT HipLeft
  {
    OFFSET -1.370555 1.316434 -8.484227
    CHANNELS 3 Zrotation Xrotation Yrotation
    JOINT KneeLeft
    {
      OFFSET -3.307150 -33.721291 -2.164688
      CHANNELS 3 Zrotation Xrotation Yrotation
      JOINT AnkleLeft
      {
        OFFSET -8.860916 -35.764213 1.948817
        CHANNELS 3 Zrotation Xrotation Yrotation
        JOINT FootLeft
        {
          OFFSET 9.603661 -3.049036 -6.001142
          CHANNELS 3 Zrotation Xrotation Yrotation
          End Site
          {
            OFFSET 0 0 0
          }
        }
      }
    }
  }
  JOINT HipRight
  {
    OFFSET 3.704135 0.554289 1.345120
    CHANNELS 3 Zrotation Xrotation Yrotation
    JOINT KneeRight
    {
      OFFSET -3.285417 -32.780284 14.416114
      CHANNELS 3 Zrotation Xrotation Yrotation
      JOINT AnkleRight
      {
        OFFSET -13.585917 -37.990812 -2.601058
        CHANNELS 3 Zrotation Xrotation Yrotation
        JOINT FootRight
        {
          OFFSET 3.390870 -5.489934 1.116920
          CHANNELS 3 Zrotation Xrotation Yrotation
          End Site
          {
            OFFSET 0 0 0
          }
        }
      }
    }
  }
}
MOTION
Frames: 14
Frame Time: 0.033333
-105.408778 79.268839 315.823397 -0.000000 0.000000 -62.693625 0.000000 0.000000 62.693625 -0.000000 0.000000 0.000000 -0.000000 0.000000 0.000000 0.000000 0.000000 0.000000 -0.000000 0.000000 0.000000 -0.000000 0.000000 0.000000 -0.000000 0.000000 0.000000 -0.000000 0.000000 0.000000 0.000000 0.000000 0.000000 0.000000 0.000000 0.000000 -0.000000 0.000000 0.000000 -0.000000 0.000000 0.000000 -0.000000 0.000000 0.000000 -0.000000 0.000000 0.000000 0.000000 0.000000 0.000000 0.000000 0.000000 0.000000 0.000000 0.000000 62.693625 -0.000000 0.000000 0.000000 -0.000000 0.000000 0.000000 0.000000 0.000000 0.000000 0.000000 0.000000 62.693625 -0.000000 0.000000 0.000000 -0.000000 0.000000 0.000000 0.000000 0.000000 0.000000
-105.332003 79.297409 315.408653 0.072056 0.265036 -62.456222 0.201677 -0.186448 62.456383 -0.000000 0.000000 0.000000 0.925593 -0.567056 -0.303867 0.000000 0.000000 0.000000 -0.013290 1.148976 0.333583 -3.852887 5.991719 -0.129954 3.401969 -11.513191 -0.846075 1.384662 4.386717 0.865476 0.000000 0.000000 0.000000 0.000000 0.000000 0.000000 1.444816 -4.512798 -1.193001 -3.879166 4.577282 1.274272 1.720588 -14.343359 1.961187 4.370170 23.485598 -4.508696 0.000000 0.000000 0.000000 0.000000 0.000000 0.000000 0.201677 -0.186448 62.456383 -0.000000 0.000000 0.000000 -0.000000 0.000000 0.000000 0.000000 0.000000 0.000000 0.201677 -0.186448 62.456383 -0.000000 0.000000 0.000000 -1.104470 3.505880 1.999334 0.000000 0.000000 0.000000
-105.283118 79.303690 315.073262 0.113646 0.457771 -62.288591 0.352420 -0.313482 62.289101 -0.000000 0.000000 0.000000 1.703847 -1.034565 -0.558291 0.000000 0.000000 0.000000 -0.223271 2.299272 0.689560 -5.796555 8.680971 -0.371706 5.694788 -16.777728 -0.966013 1.302660 6.195469 1.345357 0.000000 0.000000 0.000000 0.000000 0.000000 0.000000 2.268478 -7.006974 -1.821254 -6.487936 6.181202 2.062434 3.784701 -41.649015 5.815596 21.639948 58.713034 -23.287263 0.000000 0.000000 0.000000 0.000000 0.000000 0.000000 0.352420 -0.313482 62.289101 -0.000000 0.000000 0.000000 -0.000000 0.000000 0.000000 0.000000 0.000000 0.000000 1.459511 -0.983536 62.396072 -0.094130 0.303786 0.272283 -1.961143 7.248303 3.288990 0.000000 0.000000 0.000000
-105.262123 79.287683 314.817227 0.124680 0.577858 -62.196231 0.452993 -0.379822 62.197104 -0.000000 0.000000 0.000000 2.327930 -1.395314 -0.764720 0.000000 0.000000 0.000000 -0.640522 3.445503 1.074152 -6.804115 9.876789 -0.805538 7.788989 -18.353602 -0.576698 0.081523 6.156297 1.674378 0.000000 0.000000 0.000000 0.000000 0.000000 0.000000 2.512567 -7.390804 -1.946252 -7.765091 4.891741 1.960995 13.231854 -72.215020 16.875119 119.486147 68.468554 -124.055347 0.000000 0.000000 0.000000 0.000000 0.000000 0.000000 0.452993 -0.379822 62.197104 -0.000000 0.000000 0.000000 -0.000000 0.000000 0.000000 0.000000 0.000000 0.000000 1.994243 -1.261453 62.369031 -0.182564 0.427413 0.352577 -2.853766 9.668684 4.438732 0.000000 0.000000 0.000000
-105.269017 79.249387 314.640546 0.105150 0.625157 -62.181240 0.503841 -0.384740 62.182358 -0.000000 0.000000 0.000000 2.792619 -1.643738 -0.924494 0.000000 0.000000 0.000000 -1.275306 4.581448 1.493741 -7.297373 10.253437 -1.450754 10.144424 -16.718231 0.326299 -2.592783 4.290827 1.776903 0.000000 0.000000 0.000000 0.000000 0.000000 0.000000 2.183903 -5.653401 -1.584363 -7.796551 0.746395 0.830379 66.575880 -84.805439 70.543007 142.224358 49.574657 -149.907847 0.000000 0.000000 0.000000 0.000000 0.000000 0.000000 1.101078 -0.995537 62.286119 0.262959 0.812753 -0.098433 -0.000000 0.000000 0.000000 0.000000 0.000000 0.000000 2.404883 -1.394590 62.422989 -0.298958 0.539012 0.394420 -3.659006 11.370884 5.261690 0.000000 0.000000 0.000000
-105.303802 79.188803 314.543219 0.055134 0.599726 -62.242045 0.505038 -0.328101 62.243202 -0.000000 0.000000 0.000000 3.094264 -1.775929 -1.038660 0.000000 0.000000 0.000000 -2.137258 5.699826 1.954656 -7.585431 10.068916 -2.411618 13.198468 -10.848179 1.876795 -8.023755 0.094756 1.049445 0.000000 0.000000 0.000000 0.000000 0.000000 0.000000 1.251594 -1.845364 -0.703077 -6.830210 -6.281558 -1.256547 95.371574 -84.684172 99.113271 140.957663 43.447943 -151.348830 0.000000 0.000000 0.000000 0.000000 0.000000 0.000000 1.123015 -0.908236 62.344507 0.226999 0.816627 -0.096255 -0.000000 0.000000 0.000000 0.000000 0.000000 0.000000 2.693522 -1.381798 62.554455 -0.443952 0.641707 0.396866 -4.368071 12.404683 5.758050 0.000000 0.000000 0.000000
-105.390319 79.081685 314.502880 -0.051853 0.572454 -62.752887 0.532677 -0.215983 62.754150 -0.000000 0.000000 0.000000 2.994703 -1.530422 -1.077646 0.000000 0.000000 0.000000 -3.459370 7.265743 2.649658 -8.926990 9.562404 -4.727276 18.762889 6.075718 5.564947 -24.934184 -8.186277 -5.855929 0.000000 0.000000 0.000000 0.000000 0.000000 0.000000 -0.616518 5.067468 1.074756 -5.529253 -21.090361 -5.367717 35.299851 -79.628846 37.428057 134.931626 47.788347 -146.366420 0.000000 0.000000 0.000000 0.000000 0.000000 0.000000 1.288163 -0.740064 62.857605 0.121676 0.911357 -0.098120 -0.000000 0.000000 0.000000 0.000000 0.000000 0.000000 2.985937 -1.172997 63.162217 -0.700327 0.498878 0.429055 -5.413146 14.252888 6.684174 0.000000 0.000000 0.000000
-105.495052 78.968189 314.562964 -0.180503 0.401001 -63.064160 0.439264 -0.020727 63.064871 -0.000000 0.000000 0.000000 2.965005 -1.431253 -1.098989 0.000000 0.000000 0.000000 -4.977175 8.502810 3.310084 -19.547568 8.434493 -15.521745 26.476993 43.153366 19.258784 -73.272938 34.256585 -19.977466 0.000000 0.000000 0.000000 0.000000 0.000000 0.000000 -3.144894 12.661033 3.423559 -4.395041 -35.140040 -9.476789 18.568957 -68.717736 20.989551 102.528045 64.128477 -112.249381 0.000000 0.000000 0.000000 0.000000 0.000000 0.000000 1.169718 -0.369549 63.145483 -0.018783 0.809245 -0.077991 -0.000000 0.000000 0.000000 0.000000 0.000000 0.000000 3.056037 -0.791664 63.566450 -0.965511 0.744903 0.270704 -5.966390 13.083717 5.990740 0.000000 0.000000 0.000000
-105.599199 78.828963 314.721841 -0.303393 0.126135 -63.144565 0.249587 0.213691 63.144433 -0.000000 0.000000 0.000000 2.845414 -1.255196 -1.100052 0.000000 0.000000 0.000000 -6.499460 9.170940 3.811126 -116.908748 -5.313445 -153.211065 -130.862840 -49.298183 -163.092608 -69.901686 72.327852 -52.766665 0.000000 0.000000 0.000000 0.000000 0.000000 0.000000 -6.098212 20.065348 6.202809 -2.700752 -47.005880 -12.579981 12.434173 -56.979942 18.015613 13.222551 35.923417 -20.085164 0.000000 0.000000 0.000000 0.000000 0.000000 0.000000 0.249587 0.213691 63.144433 -0.000000 0.000000 0.000000 -0.000000 0.000000 0.000000 0.000000 0.000000 0.000000 2.932610 -0.376460 63.711052 -1.173448 1.003513 0.099265 -6.206483 11.416125 5.038648 0.000000 0.000000 0.000000
-105.681616 78.694062 314.981424 -0.399848 -0.254596 -62.928208 -0.044725 0.471907 62.927504 -0.000000 0.000000 0.000000 2.598313 -1.111454 -1.018704 0.000000 0.000000 0.000000 -7.920898 9.693437 4.262150 -145.881817 -15.274504 167.600000 128.930023 -60.768655 123.874170 -22.845990 70.743881 -114.282585 0.000000 0.000000 0.000000 0.000000 0.000000 0.000000 -8.750229 25.248906 8.641758 -1.262592 -55.720865 -14.569943 8.033158 -47.881389 14.686927 10.383316 21.657702 -16.487720 0.000000 0.000000 0.000000 0.000000 0.000000 0.000000 -0.044725 0.471907 62.927504 -0.000000 0.000000 0.000000 -0.000000 0.000000 0.000000 0.000000 0.000000 0.000000 2.549362 0.053959 63.516596 -1.304423 1.248961 -0.080170 -5.710100 8.836998 3.624456 0.000000 0.000000 0.000000
-105.754583 78.610995 315.238554 -0.487344 -0.592022 -62.422043 -0.299137 0.706050 62.421369 -0.000000 0.000000 0.000000 2.398755 -0.999022 -0.951368 0.000000 0.000000 0.000000 -9.153938 10.038590 4.626527 -155.275685 -15.675137 155.179288 102.640735 -53.148819 110.172923 -10.932273 64.367142 -131.802683 0.000000 0.000000 0.000000 0.000000 0.000000 0.000000 -11.049823 28.987091 10.743395 0.559664 -62.246432 -15.358718 4.375838 -38.358804 12.275730 8.859377 6.078731 -13.649590 0.000000 0.000000 0.000000 0.000000 0.000000 0.000000 -0.885441 1.336254 62.333825 -0.285902 -0.811826 0.095967 -0.000000 0.000000 0.000000 0.000000 0.000000 0.000000 2.179531 0.436412 63.024100 -1.393790 1.683694 -0.324027 -5.015447 4.721246 1.422988 0.000000 0.000000 0.000000
-105.787050 78.565917 315.509632 -0.527710 -0.915544 -61.663548 -0.555376 0.899032 61.663689 -0.000000 0.000000 0.000000 2.244939 -0.864473 -0.917090 0.000000 0.000000 0.000000 -9.894395 9.541259 4.581859 -159.944240 -16.744937 149.212767 95.696340 -49.615019 109.633633 -8.307307 62.001305 -139.161717 0.000000 0.000000 0.000000 0.000000 0.000000 0.000000 -12.984426 30.537751 12.218537 3.610371 -64.525039 -14.267802 1.072532 -29.134243 7.913793 9.615674 -8.040817 -9.636829 0.000000 0.000000 0.000000 0.000000 0.000000 0.000000 -1.835611 1.932897 61.517389 -0.297967 -1.618046 0.173730 -0.000000 0.000000 0.000000 0.000000 0.000000 0.000000 1.798752 0.665205 62.246844 -0.889050 2.192151 -0.598283 -5.578685 3.109172 0.971068 0.000000 0.000000 0.000000
-105.766831 78.603588 315.714143 -0.504645 -1.119065 -61.019021 -0.734457 0.983649 61.020397 -0.000000 0.000000 0.000000 2.118036 -0.826971 -0.861396 0.000000 0.000000 0.000000 -10.448632 8.751757 4.382889 -159.451881 -17.533381 149.072221 93.660707 -50.675040 108.047401 -6.384521 60.500995 -139.903253 0.000000 0.000000 0.000000 0.000000 0.000000 0.000000 -14.272243 30.940339 13.067151 5.572140 -65.497186 -13.580967 -1.241014 -14.001865 2.818645 11.553103 -24.729703 -1.229090 0.000000 0.000000 0.000000 0.000000 0.000000 0.000000 -2.568788 2.302098 60.836195 -0.256776 -2.243716 0.231771 -0.000000 0.000000 0.000000 0.000000 0.000000 0.000000 1.495711 0.779601 61.584218 -0.881459 2.058511 -0.582303 -6.173129 3.759498 1.321335 0.000000 0.000000 0.000000
-105.700901 78.695829 315.801034 -0.430927 -1.152331 -60.561193 -0.791783 0.941635 60.563366 -0.000000 0.000000 0.000000 1.881316 -0.701712 -0.777816 0.000000 0.000000 0.000000 -10.532765 7.677680 3.982221 -155.847100 -18.786711 153.089252 98.892701 -54.909906 108.601717 -6.181064 61.394082 -133.894070 0.000000 0.000000 0.000000 0.000000 0.000000 0.000000 -14.360862 30.305719 12.955702 5.875251 -64.330203 -13.368472 -1.551435 -2.922900 -0.048603 13.949459 -33.594720 4.698473 0.000000 0.000000 0.000000 0.000000 0.000000 0.000000 -2.988985 2.305310 60.365599 0.237457 -3.299875 0.471078 -0.329036 0.719208 -0.193985 0.000000 0.000000 0.000000 1.377623 0.631695 61.084673 -0.777377 2.048762 -0.537195 -7.242222 5.963448 2.723864 0.000000 0.000000 0.000000
